HIERARCHY
ROOT Hips
{
	OFFSET 0.000000 0.000000 0.000000
	CHANNELS 6 Xposition Yposition Zposition Zrotation Yrotation Xrotation 
	JOINT LeftUpLeg_virtual
	{
		OFFSET 0.000000 0.000000 0.000000
		CHANNELS 3 Zrotation Yrotation Xrotation
		JOINT LeftUpLeg
		{
			OFFSET 8.479694 -4.795517 -0.379053
			CHANNELS 3 Zrotation Yrotation Xrotation
			JOINT LeftLeg
			{
				OFFSET 0.485052 -32.551468 0.112863
				CHANNELS 3 Zrotation Yrotation Xrotation
				JOINT LeftFoot
				{
					OFFSET 0.438033 -32.635670 -3.012641
					CHANNELS 3 Zrotation Yrotation Xrotation
					JOINT LeftToeBase
					{
						OFFSET 0.970169 -13.225353 11.864223
						CHANNELS 3 Zrotation Yrotation Xrotation
						End Site
						{
							OFFSET 0.000000 0.000000 0.000000
						}
					}
				}
			}
		}
	}
	JOINT RightUpLeg_virtual
	{
		OFFSET 0.000000 0.000000 0.000000
		CHANNELS 3 Zrotation Yrotation Xrotation
		JOINT RightUpLeg
		{
			OFFSET -8.479694 -4.795517 -0.379053
			CHANNELS 3 Zrotation Yrotation Xrotation
			JOINT RightLeg
			{
				OFFSET -0.484100 -32.551483 0.112903
				CHANNELS 3 Zrotation Yrotation Xrotation
				JOINT RightFoot
				{
					OFFSET -0.438985 -32.635651 -3.012681
					CHANNELS 3 Zrotation Yrotation Xrotation
					JOINT RightToeBase
					{
						OFFSET -0.970169 -13.225354 11.864223
						CHANNELS 3 Zrotation Yrotation Xrotation
						End Site
						{
							OFFSET 0.000000 0.000000 0.000000
						}
					}
				}
			}
		}
	}
	JOINT Spine_virtual
	{
		OFFSET 0.000000 0.000000 0.000000
		CHANNELS 3 Zrotation Yrotation Xrotation
		JOINT Spine
		{
			OFFSET 0.000000 7.722015 1.166203
			CHANNELS 3 Zrotation Yrotation Xrotation
			JOINT Spine1
			{
				OFFSET 0.000000 12.024086 0.248766
				CHANNELS 3 Zrotation Yrotation Xrotation
				JOINT Spine2
				{
					OFFSET -0.000000 11.503036 -0.491240
					CHANNELS 3 Zrotation Yrotation Xrotation
					JOINT Neck_virtual
					{
						OFFSET 0.000000 0.000000 0.000000
						CHANNELS 3 Zrotation Yrotation Xrotation
						JOINT Neck
						{
							OFFSET 0.000000 18.430687 -3.123054
							CHANNELS 3 Zrotation Yrotation Xrotation
							JOINT Head
							{
								OFFSET -0.000000 9.051071 1.034021
								CHANNELS 3 Zrotation Yrotation Xrotation
								End Site
								{
									OFFSET 0.000000 0.000000 0.000000
								}
							}
						}
					}
					JOINT LeftShoulder_virtual
					{
						OFFSET 0.000000 0.000000 0.000000
						CHANNELS 3 Zrotation Yrotation Xrotation
						JOINT LeftShoulder
						{
							OFFSET 6.197824 13.665230 -4.064723
							CHANNELS 3 Zrotation Yrotation Xrotation
							JOINT LeftArm
							{
								OFFSET 7.778132 -0.187073 -1.709282
								CHANNELS 3 Zrotation Yrotation Xrotation
								JOINT LeftForeArm
								{
									OFFSET 21.954697 0.000000 -2.041093
									CHANNELS 3 Zrotation Yrotation Xrotation
									JOINT LeftHand
									{
										OFFSET 22.992908 0.000000 -0.870901
										CHANNELS 3 Zrotation Yrotation Xrotation
										End Site
										{
											OFFSET 0.000000 0.000000 0.000000
										}
									}
								}
							}
						}
					}
					JOINT RightShoulder_virtual
					{
						OFFSET 0.000000 0.000000 0.000000
						CHANNELS 3 Zrotation Yrotation Xrotation
						JOINT RightShoulder
						{
							OFFSET -6.197824 13.665230 -4.064723
							CHANNELS 3 Zrotation Yrotation Xrotation
							JOINT RightArm
							{
								OFFSET -7.778132 -0.187073 -1.709282
								CHANNELS 3 Zrotation Yrotation Xrotation
								JOINT RightForeArm
								{
									OFFSET -21.954697 0.000000 -2.041093
									CHANNELS 3 Zrotation Yrotation Xrotation
									JOINT RightHand
									{
										OFFSET -22.992908 0.000000 -0.870901
										CHANNELS 3 Zrotation Yrotation Xrotation
										End Site
										{
											OFFSET 0.000000 0.000000 0.000000
										}
									}
								}
							}
						}
					}
				}
			}
		}
	}
}
MOTION
Frames: 13
Frame Time: 0.033333
23.614956 81.383743 25.064772 -179.988325 0.789707 179.967999 -3.223398 -1.787219 7.148856 5.026751 4.282278 -33.488349 7.975496 5.133363 32.583581 1.776850 -3.550270 -3.461625 0.000000 0.000000 0.000000 1.088438 -2.693858 6.121049 2.980334 3.740964 -24.334060 1.434110 5.261850 33.695891 7.270209 9.407864 -12.221293 0.000000 0.000000 0.000000 2.985311 -0.626809 -3.978241 -1.548715 1.515512 1.059942 -0.690832 -1.814479 6.915800 0.038298 0.052924 -0.015809 -1.247862 -0.487008 7.757369 -4.925424 3.210993 -9.405191 0.000000 0.000000 0.000000 0.269553 0.163458 5.093051 6.916706 -4.219815 0.536595 -17.916329 -21.226059 -32.317183 0.703676 -54.487978 0.564566 0.000000 0.000000 0.000000 -3.395239 1.443242 4.782225 23.072111 1.748474 1.990254 24.878547 11.880876 -17.200708 1.952201 26.390835 -4.219728 0.000000 0.000000 0.000000 
23.967196 81.545120 25.079678 179.945568 1.257853 179.940569 -3.221111 -1.488160 7.118249 5.555434 3.451299 -33.284239 6.953912 4.446314 32.886610 0.581894 -4.726236 -3.892888 0.000000 0.000000 0.000000 1.137650 -2.204161 6.001815 3.220707 3.817182 -23.840748 1.266318 5.152898 32.967578 7.112510 9.339852 -11.697458 0.000000 0.000000 0.000000 3.059488 -0.263260 -4.049337 -1.487066 1.460548 0.538709 -0.560646 -1.987524 6.714046 0.000758 0.042468 -0.021737 -1.018554 -0.624817 7.524091 -4.707910 3.460062 -8.721148 0.000000 0.000000 0.000000 0.437645 -0.020115 4.854162 7.665949 -3.968321 0.011535 -14.651008 -21.096668 -35.069477 0.916612 -50.331039 0.086999 0.000000 0.000000 0.000000 -3.155768 1.290244 4.454019 21.965453 2.070517 1.775794 20.859811 13.624617 -23.456750 2.102919 25.897912 -4.281455 0.000000 0.000000 0.000000 
24.166475 81.675262 24.877493 179.890790 1.641691 179.988708 -3.248116 -0.796128 7.068138 5.907420 3.301777 -32.887798 5.956001 3.829286 32.328105 -0.840212 -6.182166 -4.284970 0.000000 0.000000 0.000000 1.088710 -1.556052 5.958397 3.437078 3.954185 -23.395218 1.085806 5.041387 32.465272 7.050592 9.264515 -11.394421 0.000000 0.000000 0.000000 3.044123 0.282623 -4.295938 -1.400964 1.269182 -0.174184 -0.356395 -2.184187 6.507216 0.037871 0.042649 -0.016505 -0.824924 -0.880700 7.323974 -4.393869 4.035584 -8.036092 0.000000 0.000000 0.000000 0.581599 -0.245655 4.644351 8.215163 -3.743281 -0.527021 -11.549364 -21.009819 -37.139799 1.470496 -46.338653 -0.504678 0.000000 0.000000 0.000000 -2.972390 1.047309 4.237147 20.680652 2.587579 1.412827 16.933591 15.269038 -29.136942 2.313671 26.068778 -4.341033 0.000000 0.000000 0.000000 
24.248425 81.777870 24.552629 179.911868 1.885587 179.950076 -3.186380 -0.208763 7.074869 6.106944 3.328266 -32.129794 5.520553 3.905907 31.141711 -1.489564 -6.748048 -4.287723 0.000000 0.000000 0.000000 1.041435 -0.822938 6.017422 3.660942 4.069478 -22.929353 0.950248 4.898494 32.088601 7.041338 9.180448 -11.287922 0.000000 0.000000 0.000000 3.068823 0.917054 -4.443716 -1.288208 1.016925 -0.945192 -0.162041 -2.358164 6.341545 0.020168 0.026481 0.008065 -0.618674 -1.095065 7.095718 -4.113230 4.213553 -7.191273 0.000000 0.000000 0.000000 0.820107 -0.441716 4.360863 8.540473 -3.711138 -1.190681 -8.537592 -21.069481 -39.230148 2.082637 -42.866756 -1.039840 0.000000 0.000000 0.000000 -2.799385 0.876809 3.969601 19.337022 2.894538 1.217489 12.992091 16.810293 -34.069018 2.270689 27.178052 -4.221514 0.000000 0.000000 0.000000 
24.237461 81.849289 24.180805 179.913562 2.179398 -179.994869 -3.208747 0.483346 7.018283 6.196849 3.516679 -31.432418 5.288718 3.909015 30.016451 -1.699495 -6.796774 -4.261157 0.000000 0.000000 0.000000 0.939274 -0.087728 6.305897 3.765821 4.154704 -22.872618 0.815113 4.806943 31.914844 7.083434 9.114786 -11.318120 0.000000 0.000000 0.000000 3.151152 1.542940 -4.623754 -1.207287 0.746626 -1.761925 0.007072 -2.489400 6.170936 -0.031384 0.037608 0.014431 -0.317639 -1.061316 6.974080 -3.673431 4.292721 -6.384007 0.000000 0.000000 0.000000 1.096634 -0.593532 4.238850 8.649560 -3.723020 -1.897249 -5.554255 -21.273022 -41.445789 2.648248 -40.334320 -1.299011 0.000000 0.000000 0.000000 -2.505732 0.671533 3.853024 18.112775 3.232330 0.814549 8.973224 18.339589 -38.004361 2.115067 29.236184 -3.864286 0.000000 0.000000 0.000000 
24.142353 81.917000 23.856524 179.927742 2.659761 179.987369 -3.131372 1.095995 6.975011 6.100349 3.949327 -30.679133 5.070669 4.079185 29.297953 -1.885636 -6.844367 -4.466527 0.000000 0.000000 0.000000 0.889175 0.519714 6.211873 3.751155 4.331954 -22.372642 0.693350 4.695277 31.762132 7.126479 9.043536 -11.364583 0.000000 0.000000 0.000000 3.226060 2.082461 -4.642017 -1.116961 0.531433 -2.538011 0.270295 -2.517038 6.050730 0.038217 -0.065346 -0.008703 -0.137873 -1.365434 6.841447 -3.227131 4.712085 -5.513837 0.000000 0.000000 0.000000 1.201575 -0.734336 4.040678 8.441067 -3.752441 -2.554816 -2.666696 -21.543667 -43.767958 3.352783 -38.930272 -1.587010 0.000000 0.000000 0.000000 -2.429757 0.603003 3.710541 17.157063 3.533517 0.527143 4.764165 19.669555 -41.672589 1.900970 32.195043 -3.343434 0.000000 0.000000 0.000000 
24.010210 81.984108 23.591074 179.895339 2.901938 -179.993107 -3.069548 1.443242 6.830015 5.898692 4.469284 -30.062036 4.756615 4.174375 28.813512 -2.039797 -6.894199 -4.659002 0.000000 0.000000 0.000000 0.838009 0.862459 6.278841 3.640135 4.297883 -22.190045 0.644457 4.601717 31.622949 7.273498 9.086560 -11.338683 0.000000 0.000000 0.000000 3.362084 2.404895 -4.711639 -1.135448 0.198048 -3.256067 0.462596 -2.619437 5.974676 0.037639 0.028466 0.012139 0.145024 -1.398168 6.806300 -2.694656 4.947442 -4.643500 0.000000 0.000000 0.000000 1.389030 -0.713384 4.015701 8.083207 -3.910009 -3.174710 0.129001 -22.007776 -46.170706 4.013735 -38.834154 -1.780694 0.000000 0.000000 0.000000 -2.254959 0.551161 3.544565 16.616262 3.655063 0.127863 0.361133 20.777634 -45.474932 1.699619 35.766890 -2.640953 0.000000 0.000000 0.000000 
23.832726 82.062508 23.405285 179.884971 3.360678 179.954011 -3.027070 1.861779 6.711969 5.762642 5.048383 -29.554751 4.526574 4.581073 28.512684 -2.084535 -6.854763 -4.417629 0.000000 0.000000 0.000000 0.843668 1.260404 6.268498 3.474308 4.250521 -21.916031 0.617434 4.506658 31.508639 7.436839 9.151031 -11.237286 0.000000 0.000000 0.000000 3.509769 2.623782 -4.731879 -1.181458 -0.101034 -3.892183 0.667902 -2.622849 5.940406 -0.000353 0.013695 -0.025051 0.436681 -1.280303 6.850725 -2.186014 4.953841 -3.802148 0.000000 0.000000 0.000000 1.674771 -0.673395 3.954701 7.463340 -4.020763 -3.705636 2.722567 -22.459615 -48.085911 4.754969 -39.979959 -1.953281 0.000000 0.000000 0.000000 -2.042821 0.620865 3.550066 16.592073 3.701243 -0.358686 -4.574261 21.970198 -49.475063 1.481875 39.720408 -1.799153 0.000000 0.000000 0.000000 
23.623650 82.144417 23.280800 179.864439 3.690117 179.961332 -3.035860 1.970539 6.579193 5.716199 5.797418 -29.219372 4.313924 4.928658 28.689547 -1.851065 -6.568320 -4.015602 0.000000 0.000000 0.000000 0.856267 1.365042 6.287778 3.207218 4.262642 -21.767400 0.611393 4.470246 31.276621 7.624614 9.243979 -11.051321 0.000000 0.000000 0.000000 3.597869 2.747826 -4.764544 -1.301597 -0.417064 -4.466828 0.880895 -2.576353 5.944390 0.004355 0.016274 0.017823 0.688177 -1.307786 6.897937 -1.657672 5.014481 -2.918046 0.000000 0.000000 0.000000 1.892235 -0.589006 3.869794 6.869092 -4.214173 -4.161567 5.134415 -22.948105 -49.750087 5.603645 -42.131021 -2.330282 0.000000 0.000000 0.000000 -1.858436 0.694882 3.448085 17.106127 3.621500 -0.805713 -9.754682 22.986554 -53.785872 1.518243 43.805179 -0.689736 0.000000 0.000000 0.000000 
23.373600 82.224876 23.194263 179.840643 4.026429 179.979364 -2.992712 2.002372 6.471239 5.833070 6.471295 -29.091282 4.137056 5.056001 29.369107 -1.352808 -6.067156 -3.566024 0.000000 0.000000 0.000000 0.855675 1.384109 6.303069 2.900513 4.343480 -21.632387 0.622233 4.521561 30.980345 7.809485 9.342613 -10.870206 0.000000 0.000000 0.000000 3.656552 2.798182 -4.794470 -1.472941 -0.730649 -4.957307 1.082958 -2.476503 5.996328 0.011355 0.046522 0.010148 0.946402 -1.202012 7.021175 -1.131543 5.029268 -2.129125 0.000000 0.000000 0.000000 2.135903 -0.425900 3.928372 6.225939 -4.335178 -4.630846 7.514075 -23.402566 -51.063119 6.339715 -44.937266 -2.553300 0.000000 0.000000 0.000000 -1.685832 0.837468 3.417837 17.939207 3.515155 -1.194710 -15.202048 23.828437 -57.945303 1.863866 48.258722 0.777927 0.000000 0.000000 0.000000 
23.073248 82.292992 23.114658 179.825439 3.943879 -179.984719 -2.950812 1.768240 6.399249 6.327480 6.730992 -29.108924 4.039220 4.913884 30.428930 -0.616205 -5.390220 -3.341257 0.000000 0.000000 0.000000 0.817811 1.106558 6.046347 2.594391 4.513164 -21.172299 0.644343 4.540201 30.658687 7.943262 9.401635 -10.792125 0.000000 0.000000 0.000000 3.658016 2.743480 -4.852261 -1.693087 -1.082883 -5.409100 1.248798 -2.389753 6.102548 -0.014736 0.033170 -0.003281 1.229965 -0.963959 7.131423 -0.646003 4.983804 -1.455339 0.000000 0.000000 0.000000 2.381660 -0.327117 3.922505 5.752116 -4.391008 -4.808204 9.716184 -23.651425 -52.235825 7.266934 -48.020031 -3.004232 0.000000 0.000000 0.000000 -1.486510 0.983031 3.337900 18.932359 3.364545 -1.514223 -20.811146 24.405975 -61.803800 2.437775 52.963370 2.519708 0.000000 0.000000 0.000000 
22.703415 82.339394 22.948927 179.813022 3.779270 179.961852 -2.891942 1.596776 6.428268 7.029569 6.796760 -29.119685 3.889169 4.145632 31.240107 -0.320026 -5.280625 -3.382119 0.000000 0.000000 0.000000 0.776027 0.907106 5.993465 2.264434 4.767245 -20.804328 0.658204 4.622639 30.352493 8.017375 9.412527 -10.883286 0.000000 0.000000 0.000000 3.632258 2.706840 -4.829123 -1.921943 -1.422348 -5.771651 1.434518 -2.287632 6.094808 0.008776 0.049853 -0.006813 1.386242 -0.881333 7.335233 -0.298343 5.020802 -0.835274 0.000000 0.000000 0.000000 2.543874 -0.242768 4.004669 5.155539 -4.499843 -5.041603 12.046857 -23.646993 -53.285028 8.103205 -51.068201 -3.498981 0.000000 0.000000 0.000000 -1.384177 1.104425 3.398311 20.044421 3.266145 -1.848432 -26.268197 24.754924 -64.869735 3.456936 57.710652 4.614515 0.000000 0.000000 0.000000 
22.250664 82.344185 22.669947 179.832898 3.464054 179.974337 -2.782341 1.565956 6.446795 7.816677 6.555640 -29.111216 3.550069 3.390784 31.497165 -0.284942 -5.432771 -3.406377 0.000000 0.000000 0.000000 0.729504 0.835752 5.974868 1.957465 5.096611 -20.479429 0.654349 4.698441 30.270603 7.990591 9.332257 -11.302921 0.000000 0.000000 0.000000 3.541276 2.711431 -4.921524 -2.140133 -1.809549 -6.159152 1.613562 -2.242210 6.135451 0.051751 0.039069 -0.017906 1.521235 -0.949561 7.522904 -0.065455 5.101172 -0.453696 0.000000 0.000000 0.000000 2.654611 -0.203037 4.127541 4.690521 -4.522455 -5.213601 14.201676 -23.521939 -54.230800 8.761216 -53.906394 -3.776256 0.000000 0.000000 0.000000 -1.331958 1.192035 3.507004 20.902650 3.135774 -2.049335 -31.024833 24.900923 -67.194336 4.970836 62.319397 7.171553 0.000000 0.000000 0.000000 
